<?xml version="1.0" encoding="UTF-8"?>
<svg xmlns="http://www.w3.org/2000/svg" xmlns:xlink="http://www.w3.org/1999/xlink" width="125px" height="100px" viewBox="0 0 125 100" version="1.1">
<g id="surface1">
<path style=" stroke:none;fill-rule:nonzero;fill:rgb(100%,100%,100%);fill-opacity:1;" d="M 108.109375 62.097656 L 113.804688 62.097656 C 113.589844 62.960938 113.351562 63.808594 113.089844 64.648438 C 106.8125 84.902344 87.878906 99.617188 65.492188 99.617188 C 58.839844 99.625 52.253906 98.304688 46.125 95.726562 C 39.996094 93.148438 34.449219 89.367188 29.8125 84.613281 L 38.007812 84.613281 C 45.824219 90.792969 55.515625 94.148438 65.492188 94.132812 C 84.800781 94.132812 101.226562 81.824219 107.292969 64.648438 C 107.589844 63.8125 107.863281 62.960938 108.109375 62.097656 Z M 108.109375 62.097656 "/>
<path style=" stroke:none;fill-rule:nonzero;fill:rgb(100%,100%,100%);fill-opacity:1;" d="M 22.847656 24.324219 C 23.390625 23.429688 23.957031 22.5625 24.550781 21.714844 C 33.542969 8.800781 48.527344 0.355469 65.488281 0.355469 C 93.007812 0.347656 115.300781 22.570312 115.300781 49.980469 C 115.300781 52.96875 115.035156 55.949219 114.5 58.886719 L 108.894531 58.886719 C 109.5 55.957031 109.800781 52.972656 109.800781 49.980469 C 109.800781 25.59375 89.964844 5.828125 65.492188 5.828125 C 59 5.820312 52.585938 7.242188 46.703125 9.984375 C 40.824219 12.730469 35.621094 16.734375 31.46875 21.707031 C 30.757812 22.554688 30.082031 23.421875 29.4375 24.316406 Z M 22.847656 24.324219 "/>
<path style=" stroke:none;fill-rule:nonzero;fill:rgb(100%,100%,100%);fill-opacity:1;" d="M 24.667969 32.164062 L 22.871094 38.507812 L 30.234375 38.507812 L 29.386719 41.664062 L 21.980469 41.664062 L 17.105469 58.894531 L 12.769531 58.894531 L 20.328125 32.164062 L 21.445312 28.214844 L 75.183594 28.128906 L 74.121094 32.078125 Z M 24.667969 32.164062 "/>
<path style=" stroke:none;fill-rule:nonzero;fill:rgb(100%,100%,100%);fill-opacity:1;" d="M 32.582031 35.214844 L 31.632812 38.511719 L 26.679688 55.734375 L 25.769531 58.894531 L 38.421875 58.894531 L 39.332031 55.734375 L 44.292969 38.507812 L 45.242188 35.210938 Z M 36.105469 55.734375 L 30.078125 55.734375 L 35.039062 38.507812 L 41.066406 38.507812 Z M 36.105469 55.734375 "/>
<path style=" stroke:none;fill-rule:nonzero;fill:rgb(100%,100%,100%);fill-opacity:1;" d="M 49.144531 38.507812 L 47.214844 45.210938 L 56.464844 45.210938 L 55.519531 48.503906 L 53.4375 55.734375 L 52.53125 58.894531 L 39.878906 58.894531 L 40.785156 55.734375 L 50.214844 55.734375 L 52.292969 48.503906 L 42.867188 48.503906 L 43.816406 45.210938 L 45.742188 38.507812 L 46.691406 35.214844 L 59.34375 35.214844 L 58.394531 38.507812 Z M 49.144531 38.507812 "/>
<path style=" stroke:none;fill-rule:nonzero;fill:rgb(100%,100%,100%);fill-opacity:1;" d="M 63.152344 38.507812 L 61.226562 45.210938 L 70.472656 45.210938 L 69.527344 48.503906 L 67.449219 55.734375 L 66.539062 58.894531 L 53.890625 58.894531 L 54.796875 55.734375 L 64.222656 55.734375 L 66.304688 48.503906 L 56.878906 48.503906 L 57.824219 45.210938 L 59.753906 38.507812 L 60.699219 35.214844 L 73.351562 35.214844 L 72.402344 38.507812 Z M 63.152344 38.507812 "/>
<path style=" stroke:none;fill-rule:nonzero;fill:rgb(100%,100%,100%);fill-opacity:1;" d="M 29.4375 24.324219 L 77.1875 24.324219 L 76.882812 25.5 L 83.148438 25.5 L 83.253906 25.132812 L 84.367188 21.175781 L 84.738281 19.867188 L 78.363281 19.867188 L 77.875 21.707031 L 24.554688 21.707031 C 23.960938 22.5625 23.390625 23.433594 22.851562 24.316406 Z M 29.4375 24.324219 "/>
<path style=" stroke:none;fill-rule:nonzero;fill:rgb(100%,100%,100%);fill-opacity:1;" d="M 77.082031 53.203125 L 80.316406 48.101562 L 81.371094 48.101562 L 79.191406 58.335938 L 78.121094 58.335938 L 79.777344 50.546875 L 79.746094 50.546875 L 76.566406 55.5625 L 75.539062 50.546875 L 75.511719 50.574219 L 73.859375 58.335938 L 72.789062 58.335938 L 74.96875 48.101562 L 76.011719 48.101562 Z M 89.753906 48.101562 L 89.566406 49 L 85.304688 49 L 84.519531 52.636719 L 87.585938 52.636719 L 87.398438 53.53125 L 84.332031 53.53125 L 83.492188 57.441406 L 87.855469 57.441406 L 87.671875 58.335938 L 82.238281 58.335938 L 84.417969 48.101562 Z M 97.71875 50.320312 L 96.648438 50.320312 C 96.820312 49.46875 96.347656 48.800781 95.480469 48.800781 C 93.3125 48.800781 92.542969 51.726562 92.199219 53.304688 C 91.886719 54.796875 91.429688 57.636719 93.484375 57.636719 C 94.550781 57.636719 95.363281 56.84375 95.59375 55.832031 L 96.664062 55.832031 C 96.207031 57.496094 94.964844 58.535156 93.253906 58.535156 C 90.429688 58.535156 90.6875 55.449219 91.144531 53.277344 C 91.628906 51.03125 92.753906 47.902344 95.652344 47.902344 C 97.078125 47.902344 97.933594 48.898438 97.71875 50.320312 Z M 97.71875 50.320312 "/>
<path style=" stroke:none;fill-rule:nonzero;fill:rgb(100%,100%,100%);fill-opacity:1;" d="M 77.082031 53.203125 L 76.710938 53.28125 L 76.902344 54.191406 L 77.402344 53.40625 Z M 80.316406 48.101562 L 80.316406 47.726562 L 80.109375 47.726562 L 79.996094 47.902344 Z M 81.371094 48.101562 L 81.742188 48.179688 L 81.839844 47.726562 L 81.371094 47.726562 Z M 79.191406 58.335938 L 79.191406 58.710938 L 79.496094 58.710938 L 79.5625 58.414062 Z M 78.121094 58.335938 L 77.75 58.257812 L 77.65625 58.710938 L 78.121094 58.710938 Z M 79.777344 50.546875 L 80.144531 50.625 L 80.242188 50.171875 L 79.777344 50.171875 Z M 79.746094 50.546875 L 79.746094 50.171875 L 79.539062 50.171875 L 79.425781 50.34375 Z M 76.566406 55.5625 L 76.195312 55.640625 L 76.382812 56.558594 L 76.886719 55.765625 Z M 75.539062 50.546875 L 75.910156 50.472656 L 75.769531 49.785156 L 75.273438 50.28125 Z M 75.511719 50.574219 L 75.246094 50.308594 L 75.164062 50.386719 L 75.140625 50.496094 Z M 73.859375 58.335938 L 73.859375 58.710938 L 74.164062 58.710938 L 74.226562 58.414062 Z M 72.789062 58.335938 L 72.417969 58.257812 L 72.320312 58.710938 L 72.789062 58.710938 Z M 74.96875 48.101562 L 74.96875 47.726562 L 74.664062 47.726562 L 74.601562 48.023438 Z M 76.011719 48.101562 L 76.382812 48.027344 L 76.320312 47.726562 L 76.011719 47.726562 Z M 77.402344 53.40625 L 80.636719 48.304688 L 79.996094 47.902344 L 76.761719 53.003906 Z M 80.316406 48.480469 L 81.371094 48.480469 L 81.371094 47.726562 L 80.316406 47.726562 Z M 81.003906 48.023438 L 78.820312 58.257812 L 79.5625 58.414062 L 81.742188 48.179688 Z M 79.191406 57.957031 L 78.121094 57.957031 L 78.121094 58.710938 L 79.191406 58.710938 Z M 78.492188 58.414062 L 80.144531 50.625 L 79.40625 50.46875 L 77.75 58.257812 Z M 79.777344 50.171875 L 79.746094 50.171875 L 79.746094 50.925781 L 79.777344 50.925781 Z M 79.425781 50.34375 L 76.246094 55.363281 L 76.886719 55.765625 L 80.066406 50.75 Z M 76.9375 55.488281 L 75.910156 50.472656 L 75.171875 50.621094 L 76.195312 55.640625 Z M 75.273438 50.28125 L 75.246094 50.308594 L 75.78125 50.84375 L 75.808594 50.8125 Z M 75.140625 50.496094 L 73.488281 58.257812 L 74.226562 58.414062 L 75.882812 50.65625 Z M 73.859375 57.957031 L 72.789062 57.957031 L 72.789062 58.710938 L 73.859375 58.710938 Z M 73.160156 58.414062 L 75.339844 48.179688 L 74.601562 48.023438 L 72.417969 58.257812 Z M 74.96875 48.480469 L 76.011719 48.480469 L 76.011719 47.726562 L 74.96875 47.726562 Z M 75.640625 48.179688 L 76.710938 53.28125 L 77.449219 53.128906 L 76.382812 48.027344 Z M 89.753906 48.101562 L 90.121094 48.179688 L 90.214844 47.726562 L 89.753906 47.726562 Z M 89.566406 49 L 89.566406 49.375 L 89.875 49.375 L 89.9375 49.074219 Z M 85.304688 49 L 85.304688 48.621094 L 84.996094 48.621094 L 84.933594 48.917969 Z M 84.519531 52.636719 L 84.148438 52.558594 L 84.050781 53.011719 L 84.519531 53.011719 Z M 87.585938 52.636719 L 87.957031 52.710938 L 88.050781 52.257812 L 87.585938 52.257812 Z M 87.398438 53.53125 L 87.398438 53.910156 L 87.707031 53.910156 L 87.769531 53.609375 Z M 84.332031 53.53125 L 84.332031 53.15625 L 84.027344 53.15625 L 83.964844 53.453125 Z M 83.492188 57.441406 L 83.121094 57.359375 L 83.023438 57.816406 L 83.492188 57.816406 Z M 87.855469 57.441406 L 88.226562 57.515625 L 88.320312 57.0625 L 87.855469 57.0625 Z M 87.671875 58.335938 L 87.671875 58.710938 L 87.980469 58.710938 L 88.039062 58.410156 Z M 82.238281 58.335938 L 81.867188 58.257812 L 81.769531 58.710938 L 82.238281 58.710938 Z M 84.417969 48.101562 L 84.417969 47.726562 L 84.113281 47.726562 L 84.050781 48.023438 Z M 89.382812 48.027344 L 89.195312 48.921875 L 89.9375 49.074219 L 90.121094 48.179688 Z M 89.566406 48.621094 L 85.304688 48.621094 L 85.304688 49.375 L 89.566406 49.375 Z M 84.933594 48.917969 L 84.148438 52.558594 L 84.890625 52.714844 L 85.671875 49.078125 Z M 84.519531 53.011719 L 87.585938 53.011719 L 87.585938 52.257812 L 84.519531 52.257812 Z M 87.214844 52.558594 L 87.027344 53.457031 L 87.769531 53.609375 L 87.957031 52.710938 Z M 87.398438 53.15625 L 84.332031 53.15625 L 84.332031 53.910156 L 87.398438 53.910156 Z M 83.964844 53.453125 L 83.121094 57.359375 L 83.863281 57.519531 L 84.703125 53.609375 Z M 83.492188 57.816406 L 87.855469 57.816406 L 87.855469 57.0625 L 83.492188 57.0625 Z M 87.484375 57.363281 L 87.300781 58.257812 L 88.039062 58.410156 L 88.226562 57.515625 Z M 87.671875 57.957031 L 82.238281 57.957031 L 82.238281 58.710938 L 87.671875 58.710938 Z M 82.605469 58.414062 L 84.789062 48.179688 L 84.050781 48.023438 L 81.867188 58.257812 Z M 84.417969 48.480469 L 89.753906 48.480469 L 89.753906 47.726562 L 84.417969 47.726562 Z M 97.71875 50.320312 L 97.71875 50.695312 L 98.042969 50.695312 L 98.09375 50.375 Z M 96.648438 50.320312 L 96.277344 50.246094 L 96.1875 50.695312 L 96.648438 50.695312 Z M 92.199219 53.304688 L 91.828125 53.222656 L 91.828125 53.226562 Z M 95.59375 55.832031 L 95.59375 55.457031 L 95.289062 55.457031 L 95.222656 55.75 Z M 96.664062 55.832031 L 97.027344 55.933594 L 97.160156 55.457031 L 96.664062 55.457031 Z M 91.144531 53.277344 L 90.773438 53.195312 L 90.773438 53.199219 Z M 97.71875 49.941406 L 96.648438 49.941406 L 96.648438 50.695312 L 97.71875 50.695312 Z M 97.019531 50.394531 C 97.121094 49.886719 97.039062 49.390625 96.757812 49.015625 C 96.472656 48.632812 96.015625 48.421875 95.480469 48.421875 L 95.480469 49.175781 C 95.8125 49.175781 96.027344 49.300781 96.152344 49.464844 C 96.277344 49.636719 96.347656 49.902344 96.277344 50.246094 Z M 95.480469 48.421875 C 94.1875 48.421875 93.355469 49.304688 92.820312 50.28125 C 92.289062 51.261719 92 52.433594 91.828125 53.222656 L 92.570312 53.382812 C 92.738281 52.597656 93.007812 51.519531 93.488281 50.640625 C 93.96875 49.757812 94.601562 49.175781 95.480469 49.175781 Z M 91.828125 53.226562 C 91.671875 53.972656 91.464844 55.109375 91.578125 56.074219 C 91.632812 56.558594 91.773438 57.042969 92.082031 57.410156 C 92.402344 57.796875 92.871094 58.015625 93.484375 58.015625 L 93.484375 57.261719 C 93.066406 57.261719 92.824219 57.125 92.664062 56.929688 C 92.488281 56.71875 92.378906 56.402344 92.328125 55.988281 C 92.234375 55.15625 92.414062 54.128906 92.570312 53.382812 Z M 93.484375 58.015625 C 94.761719 58.015625 95.703125 57.0625 95.960938 55.917969 L 95.222656 55.75 C 95.027344 56.621094 94.339844 57.261719 93.484375 57.261719 Z M 95.59375 56.210938 L 96.664062 56.210938 L 96.664062 55.457031 L 95.59375 55.457031 Z M 96.296875 55.734375 C 95.882812 57.25 94.777344 58.15625 93.253906 58.15625 L 93.253906 58.910156 C 95.152344 58.910156 96.53125 57.742188 97.027344 55.933594 Z M 93.253906 58.15625 C 92.621094 58.15625 92.203125 57.984375 91.921875 57.734375 C 91.632812 57.480469 91.445312 57.109375 91.339844 56.640625 C 91.125 55.679688 91.289062 54.433594 91.515625 53.351562 L 90.773438 53.199219 C 90.542969 54.289062 90.347656 55.675781 90.601562 56.800781 C 90.726562 57.371094 90.972656 57.90625 91.417969 58.300781 C 91.867188 58.695312 92.476562 58.910156 93.253906 58.910156 Z M 91.515625 53.355469 C 91.753906 52.246094 92.144531 50.960938 92.808594 49.957031 C 93.46875 48.964844 94.367188 48.28125 95.652344 48.28125 L 95.652344 47.527344 C 94.039062 47.527344 92.929688 48.40625 92.175781 49.539062 C 91.433594 50.660156 91.019531 52.058594 90.773438 53.195312 Z M 95.652344 48.28125 C 96.273438 48.28125 96.730469 48.496094 97.011719 48.824219 C 97.292969 49.152344 97.4375 49.640625 97.34375 50.265625 L 98.09375 50.375 C 98.210938 49.578125 98.035156 48.859375 97.585938 48.335938 C 97.136719 47.808594 96.453125 47.527344 95.652344 47.527344 Z M 95.652344 48.28125 "/>
<path style=" stroke:none;fill-rule:nonzero;fill:rgb(100%,100%,100%);fill-opacity:1;" d="M 119.449219 62.097656 C 119.203125 62.957031 118.929688 63.808594 118.632812 64.648438 L 71.257812 64.648438 L 62.789062 79.273438 L 61.304688 81.824219 L 18.46875 81.824219 L 18.46875 79.273438 L 59.832031 79.273438 L 68.300781 64.648438 L 69.777344 62.097656 Z M 119.449219 62.097656 "/>
<path style=" stroke:none;fill-rule:nonzero;fill:rgb(100%,100%,100%);fill-opacity:1;" d="M 19.097656 83.21875 L 12.769531 83.21875 L 14.3125 77.582031 L 20.683594 77.582031 Z M 19.097656 83.21875 "/>
<path style=" stroke:none;fill-rule:nonzero;fill:rgb(100%,100%,100%);fill-opacity:1;" d="M 7.003906 69.109375 L 6.730469 70.078125 L 6.578125 70.078125 L 6.320312 69.109375 Z M 7.003906 69.109375 "/>
<path style=" stroke:none;fill-rule:nonzero;fill:rgb(100%,100%,100%);fill-opacity:1;" d="M 60.046875 69.109375 L 6.320312 69.109375 L 6.578125 70.082031 L 0.402344 70.082031 L 1.890625 64.652344 L 1.949219 64.445312 L 8.316406 64.445312 L 7.742188 66.492188 L 61.375 66.492188 Z M 60.046875 69.109375 "/>
<path style=" stroke:none;fill-rule:nonzero;fill:rgb(100%,100%,100%);fill-opacity:1;" d="M 123.316406 66.191406 L 116.992188 66.191406 L 118.535156 60.558594 L 124.90625 60.558594 Z M 123.316406 66.191406 "/>
<path style=" stroke:none;fill-rule:nonzero;fill:rgb(100%,100%,100%);fill-opacity:1;" d="M 122.320312 55.734375 L 118.652344 55.734375 L 119.550781 52.46875 L 123.242188 52.46875 Z M 122.320312 55.734375 "/>
<path style=" stroke:none;fill-rule:nonzero;fill:rgb(100%,100%,100%);fill-opacity:1;" d="M 83.8125 32.890625 L 80.140625 32.890625 L 81.039062 29.621094 L 84.730469 29.621094 Z M 83.8125 32.890625 "/>
<path style=" stroke:none;fill-rule:nonzero;fill:rgb(100%,100%,100%);fill-opacity:1;" d="M 92.234375 25.558594 L 89.433594 25.558594 L 90.117188 23.066406 L 92.933594 23.066406 Z M 92.234375 25.558594 "/>
<path style=" stroke:none;fill-rule:nonzero;fill:rgb(100%,100%,100%);fill-opacity:1;" d="M 8.035156 59.707031 L 4.367188 59.707031 L 5.261719 56.4375 L 8.957031 56.4375 Z M 8.035156 59.707031 "/>
<path style=" stroke:none;fill-rule:nonzero;fill:rgb(100%,100%,100%);fill-opacity:1;" d="M 13.816406 64.011719 L 11.019531 64.011719 L 11.703125 61.519531 L 14.519531 61.519531 Z M 13.816406 64.011719 "/>
<path style=" stroke:none;fill-rule:nonzero;fill:rgb(100%,100%,100%);fill-opacity:1;" d="M 25.765625 87.523438 L 22.964844 87.523438 L 23.648438 85.03125 L 26.46875 85.03125 Z M 25.765625 87.523438 "/>
</g>
</svg>
